<svg xmlns="http://www.w3.org/2000/svg" version="1.1" xmlns:xlink="http://www.w3.org/1999/xlink" xmlns:svgjs="http://svgjs.dev/svgjs" width="2000" height="217" viewBox="0 0 2000 217"><g transform="matrix(1,0,0,1,-1.2121212121212466,-0.256075240236342)"><svg viewBox="0 0 396 43" data-background-color="#ffffff" preserveAspectRatio="xMidYMid meet" height="217" width="2000" xmlns="http://www.w3.org/2000/svg" xmlns:xlink="http://www.w3.org/1999/xlink"><g id="tight-bounds" transform="matrix(1,0,0,1,0.2400000000000091,0.050743019954666124)"><svg viewBox="0 0 395.52 42.89851396009067" height="42.89851396009067" width="395.52"><g><svg viewBox="0 0 496.86955224284776 53.89099267605634" height="42.89851396009067" width="395.52"><g><rect width="3.5166029920630986" height="39.18990422535211" x="404.7257669949296" y="7.350544225352117" fill="#2257bf" opacity="1" stroke-width="0" stroke="transparent" fill-opacity="1" class="rect-qz-0" data-fill-palette-color="primary" rx="1%" id="qz-0" data-palette-color="#2257bf"></rect></g><g><rect width="3.5166029920630986" height="39.18990422535211" x="412.84525348445743" y="7.350544225352117" fill="#2257bf" opacity="1" stroke-width="0" stroke="transparent" fill-opacity="1" class="rect-qz-1" data-fill-palette-color="primary" rx="1%" id="qz-1" data-palette-color="#2257bf"></rect></g><g transform="matrix(1,0,0,1,0,7.448031549295777)"><svg viewBox="0 0 395.52 38.99492957746479" height="38.99492957746479" width="395.52"><g id="textblocktransform"><svg viewBox="0 0 395.52 38.99492957746479" height="38.99492957746479" width="395.52" id="textblock"><g><svg viewBox="0 0 395.52 38.99492957746479" height="38.99492957746479" width="395.52"><g transform="matrix(1,0,0,1,0,0)"><svg width="395.52" viewBox="0 -50 443.73 43.75" height="38.99492957746479" data-palette-color="#2257bf"><path d="M12.5-6.25L0-6.25 0-50 12.5-50 12.5-31.25 31.25-31.25 31.25-50 43.75-50 43.75-6.25 31.25-6.25 31.25-25 12.5-25 12.5-6.25ZM93.75-6.25L56.25-6.25 56.25-12.5 50-12.5 50-37.5 62.5-37.5 62.5-12.5 81.25-12.5 81.25-37.5 93.75-37.5 93.75-6.25ZM137.5-6.25L106.25-6.25 106.25-12.5 100-12.5 100-50 112.5-50 112.5-37.5 137.5-37.5 137.5-31.25 143.75-31.25 143.75-12.5 137.5-12.5 137.5-6.25ZM112.5-31.25L112.5-12.5 131.25-12.5 131.25-31.25 112.5-31.25ZM187.49-6.25L156.24-6.25 156.24-12.5 149.99-12.5 149.99-31.25 156.24-31.25 156.24-37.5 187.49-37.5 187.49-31.25 193.74-31.25 193.74-18.75 162.49-18.75 162.49-12.5 187.49-12.5 187.49-6.25ZM162.49-31.25L162.49-25 181.24-25 181.24-31.25 162.49-31.25ZM218.74-37.5L218.74-31.25 224.99-31.25 224.99-25 218.74-25 218.74-6.25 206.24-6.25 206.24-37.5 218.74-37.5ZM224.99-37.5L243.74-37.5 243.74-31.25 224.99-31.25 224.99-37.5ZM281.24-6.25L268.74-6.25 268.74-31.25 256.24-31.25 256.24-37.5 268.74-37.5 268.74-50 281.24-50 281.24-37.5 293.74-37.5 293.74-31.25 281.24-31.25 281.24-6.25ZM331.24-6.25L299.99-6.25 299.99-50 331.24-50 331.24-43.75 337.49-43.75 337.49-37.5 343.74-37.5 343.74-18.75 337.49-18.75 337.49-12.5 331.24-12.5 331.24-6.25ZM312.49-43.75L312.49-12.5 324.99-12.5 324.99-18.75 331.24-18.75 331.24-37.5 324.99-37.5 324.99-43.75 312.49-43.75ZM387.48-6.25L356.23-6.25 356.23-12.5 349.98-12.5 349.98-31.25 356.23-31.25 356.23-37.5 387.48-37.5 387.48-31.25 393.73-31.25 393.73-18.75 362.48-18.75 362.48-12.5 387.48-12.5 387.48-6.25ZM362.48-31.25L362.48-25 381.23-25 381.23-31.25 362.48-31.25ZM431.23-6.25L418.73-6.25 418.73-12.5 412.48-12.5 412.48-18.75 406.23-18.75 406.23-37.5 418.73-37.5 418.73-18.75 431.23-18.75 431.23-37.5 443.73-37.5 443.73-18.75 437.48-18.75 437.48-12.5 431.23-12.5 431.23-6.25Z" opacity="1" transform="matrix(1,0,0,1,0,0)" fill="#2257bf" class="wordmark-text-0" data-fill-palette-color="primary" id="text-0"></path></svg></g></svg></g></svg></g></svg></g><g transform="matrix(1,0,0,1,425.56762347145013,0)"><svg viewBox="0 0 71.30192877139763 53.89099267605634" height="53.89099267605634" width="71.30192877139763"><g><svg xmlns="http://www.w3.org/2000/svg" xmlns:xlink="http://www.w3.org/1999/xlink" version="1.1" x="0" y="0" viewBox="6.5 18 86 65" enable-background="new 0 0 100 100" xml:space="preserve" height="53.89099267605634" width="71.30192877139763" class="icon-icon-0" data-fill-palette-color="accent" id="icon-0"><g fill="#2257bf" data-fill-palette-color="accent"><path d="M35.845 61.275l-10.72-5.09c-1.209-0.572-1.94-1.463-1.94-2.703v-0.318c0-1.24 0.731-2.131 1.94-2.704l10.72-5.089c0.381-0.191 0.731-0.318 1.177-0.318 1.018-0.031 1.94 0.859 1.94 2.004 0 0.922-0.509 1.559-1.336 1.94l-9.606 4.294 9.606 4.295c0.827 0.381 1.336 1.113 1.336 2.004 0 1.177-0.922 2.004-2.1 1.972C36.513 61.562 36.163 61.435 35.845 61.275z" fill="#2257bf" data-fill-palette-color="accent"></path><path d="M41.889 66.047l12.438-25.988c0.35-0.731 0.922-1.113 1.686-1.113 1.018 0 1.876 0.859 1.876 1.813 0 0.35-0.127 0.7-0.222 0.923L45.229 67.669c-0.35 0.731-0.922 1.113-1.686 1.113-1.018 0-1.876-0.858-1.876-1.813C41.667 66.619 41.793 66.27 41.889 66.047z" fill="#2257bf" data-fill-palette-color="accent"></path><path d="M64.155 45.371l10.72 5.089c1.208 0.573 1.94 1.464 1.94 2.704v0.318c0 1.24-0.731 2.131-1.94 2.703l-10.72 5.09c-0.381 0.191-0.731 0.318-1.177 0.318-1.018 0.031-1.94-0.859-1.94-2.004 0-0.923 0.509-1.559 1.336-1.94l9.606-4.295-9.606-4.294c-0.827-0.381-1.336-1.113-1.336-2.004 0-1.177 0.923-2.004 2.1-1.973C63.487 45.084 63.837 45.212 64.155 45.371z" fill="#2257bf" data-fill-palette-color="accent"></path></g><path d="M92.5 21c0-1.657-1.343-3-3-3h-80c-1.657 0-3 1.343-3 3v59c0 1.657 1.343 3 3 3h80c1.657 0 3-1.343 3-3V21zM26 20.833c1.196 0 2.167 0.97 2.167 2.167s-0.97 2.167-2.167 2.167-2.167-0.97-2.167-2.167S24.804 20.833 26 20.833zM20 20.833c1.196 0 2.167 0.97 2.167 2.167s-0.97 2.167-2.167 2.167-2.167-0.97-2.167-2.167S18.804 20.833 20 20.833zM14 20.833c1.196 0 2.167 0.97 2.167 2.167s-0.97 2.167-2.167 2.167-2.167-0.97-2.167-2.167S12.804 20.833 14 20.833zM88.5 79h-78V29h78V79z" fill="#2257bf" data-fill-palette-color="accent"></path></svg></g></svg></g></svg></g><defs></defs></svg><rect width="395.52" height="42.89851396009067" fill="none" stroke="none" visibility="hidden"></rect></g></svg></g></svg>